<svg width="28" height="27" viewBox="0 0 28 27" fill="none" xmlns="http://www.w3.org/2000/svg">
<path d="M6.9651 8.27456L17.448 18.7574L10.3857 19.4027C10.0552 19.4331 9.75031 19.5937 9.53813 19.8489C9.32596 20.1042 9.22388 20.4333 9.25436 20.7638C9.28483 21.0944 9.44536 21.3993 9.70063 21.6114C9.9559 21.8236 10.285 21.9257 10.6155 21.8952L20.3383 21.0113C20.4102 20.9989 20.4811 20.9811 20.5504 20.9583C20.5946 20.9141 20.6211 20.8876 20.7272 20.9053C20.8686 20.844 20.9974 20.7571 21.1072 20.6489C21.2154 20.5391 21.3023 20.4103 21.3636 20.2689C21.4078 20.2247 21.4343 20.1981 21.4166 20.0921C21.4395 20.0228 21.4572 19.9519 21.4696 19.8799L22.3535 10.1572C22.3702 9.97435 22.3464 9.79004 22.2837 9.61742C22.2211 9.44479 22.1212 9.28808 21.9911 9.15844C21.785 8.95152 21.5129 8.8233 21.2221 8.79605C21.0584 8.78075 20.8933 8.7979 20.7363 8.84651C20.5792 8.89512 20.4333 8.97423 20.3068 9.07933C20.1804 9.18442 20.0759 9.31343 19.9994 9.45896C19.9229 9.60449 19.8758 9.76368 19.861 9.92742L19.2157 16.9897L8.73287 6.50679C8.49845 6.27237 8.1805 6.14068 7.84898 6.14068C7.51746 6.14068 7.19952 6.27237 6.9651 6.50679C6.73068 6.74121 6.59898 7.05916 6.59898 7.39068C6.59898 7.7222 6.73068 8.04014 6.9651 8.27456Z" fill="white"/>
</svg>
